<?xml version="1.0" encoding="utf-8"?>
<!-- Generator: Adobe Illustrator 23.1.1, SVG Export Plug-In . SVG Version: 6.00 Build 0)  -->
<svg version="1.1" id="Layer_1" xmlns="http://www.w3.org/2000/svg" xmlns:xlink="http://www.w3.org/1999/xlink" x="0px" y="0px"
	 viewBox="0 0 286 215.1" style="enable-background:new 0 0 286 215.1;" xml:space="preserve">
<style type="text/css">
	.st0{opacity:0.3;}
	.st1{fill-rule:evenodd;clip-rule:evenodd;fill:#FFFFFF;}
</style>
<g id="Home-Logo" class="st0">
	<g id="Group-31">
		<path id="Fill-1" class="st1" d="M285.5,136.9h-22V94.1h8.1v36.4h13.9V136.9z M242.2,103.9l-3,16.9h6L242.2,103.9z M237.9,127
			l-2,9.8h-8.4l9.1-42.8h11.1l9,42.8h-8.5l-1.9-9.8H237.9z M212.8,136.9h8.1V94.1h-8.1V136.9z M196.3,104.4c0-2.5-1.5-3.7-4.6-3.7
			h-4.9v13.7h4.9c1.3,0,2.4-0.4,3.3-1.1c0.9-0.7,1.3-1.6,1.3-2.6V104.4z M191.5,94.1c4.5,0,7.8,1,9.9,3c1.9,1.7,2.8,4.1,2.8,7.2v6.2
			c0,3-1.4,5.6-4.3,7.7l6,18.7h-8.7l-4.9-16.1h-0.7h-4.7v16.1h-8.1V94.1H191.5z M155.7,100.5h-8.6V94h25.2v6.5h-8.5v36.3h-8.1
			L155.7,100.5L155.7,100.5z M140.4,122.1c0.8,1.5,1.2,2.9,1.2,4.1c0.1,3-0.9,5.5-2.9,7.6c-1.3,1.4-3.2,2.4-5.5,3
			c-1.3,0.3-2.8,0.5-4.5,0.5c-3.2,0-5.8-0.6-7.9-1.9c-1.7-1-3.1-2.4-4.1-4.2s-1.6-3.8-1.8-6.1l7.7-0.4c0.3,2.5,1.2,4.3,2.5,5.4
			c1,0.8,2.1,1.2,3.3,1.2c1.8,0,3.2-0.7,4.2-2.1c0.5-0.7,0.8-1.6,0.8-2.8c0-1.8-1-3.5-3-5.3c-1.6-1.2-4-3-7.2-5.4
			c-2.7-2.1-4.6-3.9-5.7-5.6c-1.2-1.8-1.8-3.9-1.8-6c0-3.9,1.6-6.8,4.9-8.9c2-1.2,4.5-1.8,7.5-1.8c2.9,0,5.3,0.5,7.4,1.5
			c1.6,0.8,2.9,1.9,3.9,3.3s1.6,3.1,1.8,5l-7.7,1.1c-0.2-1.8-0.9-3.1-1.9-4.1c-0.7-0.7-1.8-1.1-3.2-1.1c-1.5,0-2.6,0.5-3.4,1.6
			c-0.6,0.8-0.9,1.9-0.9,3.1c0,2,1.1,4,3.2,6c0.8,0.8,2,1.7,3.6,2.7c1.9,1.3,3.1,2.1,3.7,2.6c2,1.6,3.5,3.2,4.6,4.7
			C139.7,120.8,140.1,121.5,140.4,122.1L140.4,122.1z M95.4,137.3c-3.6,0-6.6-1-9-3c-2.5-2-3.7-4.4-3.7-7.2v-33h7.9v33
			c0,1,0.5,1.9,1.4,2.6s2,1.1,3.3,1.1s2.4-0.4,3.3-1.1c0.9-0.7,1.3-1.6,1.3-2.6v-33h8.4v33.1c0,2.9-1.3,5.3-3.8,7.2
			C102,136.4,99,137.3,95.4,137.3L95.4,137.3z M58.4,130.5h4.9c1.3,0,2.4-0.4,3.2-1.1c0.9-0.7,1.3-1.6,1.3-2.6v-22.4
			c0-1-0.4-1.9-1.3-2.6s-2-1.1-3.2-1.1h-4.9C58.4,100.7,58.4,130.5,58.4,130.5z M75.7,126.6c0,2.8-1.2,5.2-3.7,7.2s-5.5,3-9,3H50.3
			V94H63c3.5,0,6.5,1,9,3s3.7,4.4,3.7,7.2V126.6z M24.3,94L35,122.8V94h8.1v42.8h-8.7l-11.1-27.4v27.4h-8.1V94H24.3z M0,136.9h8.1
			V94.1H0V136.9z"/>
		<path id="Fill-3" class="st1" d="M220,178.7l-8.6-24.9h7.1l4.8,15.4l4.8-15.4h7.1l-8.7,24.9v17.9H220V178.7z M182.7,196.6h-6.5
			v-42.9h9.3l6,30.8l5.8-30.8h8.9v42.9h-6.5v-26.9l-5.6,26.9h-5.2l-6.3-26.9v26.9H182.7z M153.4,196.6v-42.9h18.4v6.5h-11.9v11.7
			h8.7v6.5h-8.7v11.7h11.9v6.5H153.4z M133.4,178.5v18.1h-6.5v-42.8h6.5V172h7.8v-18.2h6.5v42.8h-6.5v-18.1H133.4z M111.4,197.2
			c-2.8,0-5.3-1-7.3-3s-3-4.4-3-7.2v-23.4c0-2.8,1-5.3,3-7.3s4.4-3,7.2-3c2.8,0,5.3,1,7.2,3c2,2,3,4.4,3,7.2v4.9h-6.7v-5
			c0-1-0.4-1.9-1.1-2.6c-0.7-0.7-1.6-1.1-2.6-1.1s-1.9,0.4-2.6,1.1c-0.7,0.7-1.1,1.6-1.1,2.6v23.4c0,1,0.4,1.9,1.1,2.6
			c0.7,0.7,1.6,1.1,2.6,1.1s1.9-0.4,2.6-1.1c0.7-0.7,1.1-1.6,1.1-2.6V181h6.7v6c0,2.8-1,5.3-3,7.2
			C116.6,196.2,114.2,197.2,111.4,197.2L111.4,197.2z M96.7,196.6H79.1v-42.8h6.5v36.4h11.1V196.6z M62,163.6l-2.4,16.9h4.8
			L62,163.6z M58.6,186.8l-1.6,9.8h-6.7l7.3-42.8h8.9l7.2,42.8h-6.8l-1.5-9.8H58.6z"/>
		<g id="Group-7" transform="translate(0.000000, 0.154000)">
			<path id="Fill-5" class="st1" d="M285.5,89.1c-11.7-12.8-29.4-30.2-43.2-38c-6.9,2.8-4.5,18.6-7.1,25.7
				c-0.5-6.6,0.3-19.7-0.3-24.6c-1-8.4-5.7-13.1-14.2-13.2c-4.4-0.1-6.2-2.2-8.5-5.2c-3.6-4.8-11-12.5-12.7-13.1
				c-1.7-0.5-15.3,15-22.4,22.4c-4.9,5-5,12.1-1.3,18.2c1.8,3,9.3,13.9,9.8,17.7c-7-9-22.5-31.7-27.4-34.6
				c-2.4-1.5-27.7,21.3-37.2,29.2c-0.6-0.6,14.7-14.7,19.3-18.9c3.1-2.8,6.5-5.5,9.4-8.5c3.8-3.8,7.5-5.5,12.1-1.3
				c1,0.9,2.3,1.8,3.5,1.9c1.8,0.2,4.3,0.3,5.4-0.8c1.1-1.1,1.6-4,0.9-5.4c-2.4-4.3-5.1-8.4-8.3-12.1c-5.1-6.1-11.1-11.5-15.9-17.8
				c-6.4-8.2-10.1-8.6-16.6-0.6c-1,1.2-1.9,2.6-3.1,3.5c-11.2,8.6-18,20.7-25.3,32.4c-2.6,4.1-10.1,9.9-13.4,13.5
				c-0.5-0.5,14.6-21.8,20.8-30.8c-7.9,0.2-13.7,3.7-18.4,9.2c-0.7,0.8-1.1,2.1-1.9,2.7c-10.4,7.4-24.7,23-31.4,33.7
				c-2.3,3.7-4.1,2.9-7.8,4.9c4.6-7.8,22.3-22.9,22.2-25.7c-0.2-2.7-12.2-8.1-18.3-11.1c-2-1-5.7,0-7.8,1.4
				c-11.8,7.7-34.8,40-36.3,41.3C8.6,86.4,1.9,89.5,0,89c4.6-2.8,9.2-6.7,12.6-10.6C20,70,34.8,47.5,42.7,41.9
				c5.9-4.2,11.2-5,17.8-0.8c14,8.8,14.3,8.5,26.7-2.8c7.6-6.9,14.5-14.8,25.7-16.2c1.6-0.2,3.2-1.6,4.4-2.9c5-5,10-10,14.8-15.2
				c3.9-4.3,7.7-4,11.7-0.6c2.4,2,4.4,4.4,6.5,6.8c5.2,5.8,10.3,11.7,15.4,17.6c2,2.3,4.1,4.7,5.7,7.3c3.5,5.7,5.1,5.9,9.3,1
				c4.4-5,9.1-9.7,13.5-14.8c2.6-3,5.2-3.1,8.2-1.2c0.8,0.5,1.7,0.7,2.3,1.4c7.8,8.8,17.4,14.4,27.9,19.6c4.9,2.5,9.2,6.7,15.3,8.5
				c3.6,1,6.1,6.1,9.1,9.5C263.4,66.3,283.4,80.1,285.5,89.1"/>
		</g>
	</g>
</g>
</svg>
