<?xml version="1.0" encoding="UTF-8"?>
<svg width="286px" height="214px" viewBox="0 0 286 214" version="1.1" xmlns="http://www.w3.org/2000/svg" xmlns:xlink="http://www.w3.org/1999/xlink">
    <!-- Generator: Sketch 54.1 (76490) - https://sketchapp.com -->
    <title>Home Logo</title>
    <desc>Created with Sketch.</desc>
    <defs>
        <polygon id="path-1" points="0 0.846 285.468 0.846 285.468 89.0627 0 89.0627"></polygon>
        <polygon id="path-3" points="0 213.154 285.468 213.154 285.468 1 0 1"></polygon>
    </defs>
    <g id="Home-Logo" stroke="none" stroke-width="1" fill="none" fill-rule="evenodd">
        <g id="Group-31">
            <path d="M285.468,136.8534 L263.493,136.8534 L263.493,94.0584 L271.559,94.0584 L271.559,130.4324 L285.468,130.4324 L285.468,136.8534 Z M242.155,103.8594 L239.171,120.7314 L245.143,120.7314 L242.155,103.8594 Z M237.922,127.0164 L235.959,136.8534 L227.563,136.8534 L236.653,94.0584 L247.747,94.0584 L256.708,136.8534 L248.227,136.8534 L246.342,127.0164 L237.922,127.0164 Z M212.752,136.8534 L220.818,136.8534 L220.818,94.0584 L212.752,94.0584 L212.752,136.8534 Z M196.324,104.3734 C196.324,101.8924 194.788,100.6504 191.717,100.6504 L186.85,100.6504 L186.85,114.3464 L191.717,114.3464 C192.996,114.3464 194.084,113.9814 194.98,113.2534 C195.877,112.5244 196.324,111.6464 196.324,110.6234 L196.324,104.3734 Z M191.503,94.0584 C195.997,94.0584 199.298,95.0484 201.403,97.0294 C203.253,98.7614 204.176,101.1734 204.176,104.2704 L204.176,110.4864 C204.176,113.5154 202.738,116.0774 199.866,118.1714 L205.839,136.8534 L197.118,136.8534 L192.229,120.7314 L191.503,120.7314 L186.85,120.7314 L186.85,136.8534 L178.786,136.8534 L178.786,94.0584 L191.503,94.0584 Z M155.703,100.5474 L147.126,100.5474 L147.126,94.0584 L172.301,94.0584 L172.301,100.5474 L163.767,100.5474 L163.767,136.8534 L155.703,136.8534 L155.703,100.5474 Z M140.386,122.0984 C141.154,123.6244 141.551,124.9904 141.58,126.1974 C141.639,129.1804 140.67,131.7304 138.679,133.8474 C137.37,135.2824 135.522,136.2944 133.131,136.8874 C131.852,137.2044 130.358,137.3654 128.651,137.3654 C125.493,137.3654 122.877,136.7394 120.8,135.4874 C119.064,134.4614 117.691,133.0684 116.682,131.3044 C115.672,129.5394 115.082,127.5184 114.911,125.2404 L122.593,124.7974 C122.933,127.2914 123.758,129.1004 125.067,130.2214 C126.034,131.0694 127.143,131.4684 128.396,131.4234 C130.158,131.3774 131.567,130.6814 132.619,129.3364 C133.16,128.6774 133.43,127.7314 133.43,126.4994 C133.43,124.7224 132.421,122.9564 130.402,121.2024 C128.807,119.9954 126.418,118.1824 123.232,115.7664 C120.558,113.6934 118.666,111.8344 117.557,110.1934 C116.362,108.3484 115.764,106.3424 115.764,104.1764 C115.764,100.2804 117.401,97.3294 120.672,95.3234 C122.692,94.1164 125.195,93.5124 128.183,93.5124 C131.055,93.5124 133.517,94.0244 135.565,95.0484 C137.156,95.8474 138.444,96.9624 139.426,98.3954 C140.408,99.8304 140.997,101.4824 141.197,103.3474 L133.474,104.4754 C133.245,102.7234 132.619,101.3564 131.597,100.3764 C130.855,99.6714 129.789,99.3184 128.396,99.3184 C126.915,99.3184 125.792,99.8424 125.025,100.8904 C124.399,101.7324 124.085,102.7804 124.085,104.0304 C124.085,105.9894 125.137,107.9824 127.242,110.0084 C128.038,110.7824 129.234,111.6924 130.828,112.7414 C132.705,113.9944 133.944,114.8704 134.54,115.3704 C136.53,116.9644 138.068,118.5364 139.149,120.0834 C139.66,120.8124 140.072,121.4834 140.386,122.0984 L140.386,122.0984 Z M95.448,137.3304 C91.892,137.3304 88.877,136.3414 86.401,134.3594 C83.926,132.3804 82.689,129.9784 82.689,127.1524 L82.689,94.0584 L90.584,94.0584 L90.584,127.0854 C90.584,128.1094 91.037,128.9804 91.949,129.6974 C92.859,130.4164 93.955,130.7734 95.234,130.7734 C96.514,130.7734 97.602,130.4164 98.5,129.6974 C99.395,128.9804 99.843,128.1094 99.843,127.0854 L99.843,94.0584 L108.25,94.0584 L108.25,127.1524 C108.25,130.0234 106.998,132.4374 104.495,134.3944 C101.99,136.3524 98.975,137.3304 95.448,137.3304 L95.448,137.3304 Z M58.372,130.4664 L63.238,130.4664 C64.518,130.4664 65.599,130.0954 66.48,129.3564 C67.362,128.6164 67.803,127.7454 67.803,126.7434 L67.803,104.3394 C67.803,103.3144 67.355,102.4374 66.46,101.7094 C65.564,100.9804 64.489,100.6164 63.238,100.6164 L58.372,100.6164 L58.372,130.4664 Z M75.656,126.6074 C75.656,129.4304 74.417,131.8444 71.943,133.8474 C69.467,135.8514 66.48,136.8534 62.982,136.8534 L50.308,136.8534 L50.308,94.0244 L62.982,94.0244 C66.509,94.0244 69.503,95.0264 71.964,97.0294 C74.424,99.0334 75.656,101.4354 75.656,104.2354 L75.656,126.6074 Z M24.327,94.0244 L35.029,122.8084 L35.029,94.0244 L43.094,94.0244 L43.094,136.8534 L34.432,136.8534 L23.337,109.4274 L23.337,136.8534 L15.272,136.8534 L15.272,94.0244 L24.327,94.0244 Z M0,136.8534 L8.064,136.8534 L8.064,94.0584 L0,94.0584 L0,136.8534 Z" id="Fill-1" fill="#404042"></path>
            <path d="M220.0305,194.662 L211.3835,169.745 L218.4925,169.745 L223.2775,185.125 L228.0295,169.745 L235.1725,169.745 L226.4915,194.662 L226.4915,212.607 L220.0305,212.607 L220.0305,194.662 Z M182.6735,212.607 L176.2125,212.607 L176.2125,169.745 L185.4855,169.745 L191.5055,200.534 L197.2825,169.745 L206.1905,169.745 L206.1905,212.607 L199.7285,212.607 L199.7285,185.673 L194.1255,212.607 L188.9295,212.607 L182.6735,185.742 L182.6735,212.607 Z M153.3795,212.607 L153.3795,169.745 L171.7695,169.745 L171.7695,176.239 L159.8385,176.239 L159.8385,187.929 L168.5545,187.929 L168.5545,194.423 L159.8385,194.423 L159.8385,206.112 L171.7695,206.112 L171.7695,212.607 L153.3795,212.607 Z M133.3515,194.457 L133.3515,212.607 L126.8895,212.607 L126.8895,169.779 L133.3515,169.779 L133.3515,187.962 L141.1435,187.962 L141.1435,169.779 L147.6045,169.779 L147.6045,212.607 L141.1435,212.607 L141.1435,194.457 L133.3515,194.457 Z M111.3755,213.154 C108.5275,213.154 106.1065,212.157 104.1125,210.162 C102.1175,208.17 101.1205,205.76 101.1205,202.934 L101.1205,179.554 C101.1205,176.707 102.1245,174.285 104.1295,172.29 C106.1355,170.298 108.5505,169.301 111.3755,169.301 C114.2225,169.301 116.6405,170.303 118.6225,172.308 C120.6055,174.313 121.5955,176.729 121.5955,179.554 L121.5955,184.442 L114.8965,184.442 L114.8965,179.418 C114.8965,178.392 114.5315,177.516 113.8015,176.786 C113.0725,176.057 112.1975,175.693 111.1715,175.693 C110.1455,175.693 109.2745,176.057 108.5555,176.786 C107.8375,177.516 107.4795,178.392 107.4795,179.418 L107.4795,202.866 C107.4795,203.891 107.8375,204.763 108.5555,205.481 C109.2745,206.198 110.1455,206.557 111.1715,206.557 C112.1975,206.557 113.0725,206.198 113.8015,205.481 C114.5315,204.763 114.8965,203.891 114.8965,202.866 L114.8965,196.952 L121.5955,196.952 L121.5955,202.934 C121.5955,205.783 120.5935,208.197 118.5875,210.179 C116.5825,212.162 114.1795,213.154 111.3755,213.154 L111.3755,213.154 Z M96.6785,212.607 L79.0765,212.607 L79.0765,169.779 L85.5365,169.779 L85.5365,206.181 L96.6785,206.181 L96.6785,212.607 Z M61.9865,179.589 L59.5925,196.473 L64.3785,196.473 L61.9865,179.589 Z M58.5925,202.763 L57.0225,212.607 L50.2965,212.607 L57.5765,169.779 L66.4635,169.779 L73.6395,212.607 L66.8475,212.607 L65.3365,202.763 L58.5925,202.763 Z" id="Fill-3" fill="#404042"></path>
            <g id="Group-7" transform="translate(0.000000, 0.154000)">
                <mask id="mask-2" fill="white">
                    <use xlink:href="#path-1"></use>
                </mask>
                <g id="Clip-6"></g>
                <path d="M285.468,89.0627 C273.752,76.2967 256.068,58.8867 242.246,51.0337 C235.339,53.8767 237.735,69.6337 235.172,76.7327 C234.662,70.1067 235.46,57.0287 234.862,52.1517 C233.834,43.7707 229.183,39.0687 220.696,38.9557 C216.315,38.8967 214.499,36.7637 212.218,33.7757 C208.572,28.9977 201.183,21.2417 199.526,20.7057 C197.87,20.1707 184.201,35.7067 177.083,43.0777 C172.223,48.1097 172.071,55.1817 175.81,61.2367 C177.645,64.2077 185.069,75.1107 185.613,78.8997 C178.593,69.9367 163.085,47.2127 158.215,44.2597 C155.783,42.7877 130.52,65.5277 121.001,73.4287 C120.42,72.7797 135.656,58.7537 140.266,54.5677 C143.389,51.7337 146.719,49.1097 149.676,46.1147 C153.47,42.2737 157.204,40.6437 161.782,44.8427 C162.743,45.7247 164.058,46.6167 165.278,46.7237 C167.097,46.8837 169.617,46.9827 170.654,45.9367 C171.731,44.8477 172.254,41.8887 171.525,40.5797 C169.154,36.3267 166.383,32.2157 163.243,28.4907 C158.12,22.4117 152.177,16.9947 147.323,10.7227 C140.969,2.5127 137.217,2.1137 130.755,10.1357 C129.772,11.3567 128.873,12.7277 127.653,13.6647 C116.415,22.2957 109.64,34.3277 102.349,46.0567 C99.797,50.1627 92.228,55.9217 88.915,59.5557 C88.399,59.1017 103.493,37.7437 109.747,28.7807 C101.841,28.9987 96.058,32.4857 91.351,37.9367 C90.624,38.7787 90.282,40.0617 89.426,40.6687 C79.09,47.9997 64.789,63.5697 58.068,74.2907 C55.761,77.9687 54,77.2057 50.296,79.1767 C54.87,71.4167 72.632,56.2317 72.47,53.5167 C72.308,50.8037 60.293,45.4327 54.157,42.4347 C52.196,41.4757 48.42,42.4637 46.318,43.8457 C34.536,51.5847 11.502,83.8957 10.042,85.1407 C8.582,86.3847 1.947,89.4797 0,89.0157 C4.6,86.2117 9.153,82.2867 12.555,78.4387 C20.043,69.9697 34.845,47.5267 42.651,41.9137 C48.52,37.6887 53.856,36.9327 60.479,41.0917 C74.514,49.9097 74.741,49.6257 87.164,38.3097 C94.766,31.3847 101.706,23.5357 112.837,22.1017 C114.418,21.8967 116.025,20.4647 117.259,19.2377 C122.272,14.2597 127.279,9.2607 132.025,4.0317 C135.891,-0.2253 139.772,-0.0023 143.745,3.4297 C146.095,5.4607 148.132,7.8737 150.208,10.2037 C155.391,16.0217 160.551,21.8617 165.649,27.7567 C167.675,30.1007 169.753,32.4597 171.376,35.0797 C174.905,40.7757 176.475,40.9527 180.678,36.1247 C185.053,31.0997 189.823,26.4157 194.142,21.3427 C196.723,18.3057 199.301,18.2587 202.386,20.1207 C203.154,20.5837 204.114,20.8687 204.678,21.5077 C212.43,30.3227 222.07,35.8857 232.603,41.1127 C237.549,43.5687 241.754,47.8127 247.88,49.5707 C251.516,50.6177 254.021,55.7057 256.965,59.0357 C263.405,66.3157 283.36,80.0737 285.468,89.0627" id="Fill-5" fill="#404042" mask="url(#mask-2)"></path>
            </g>
            <polygon id="Fill-8" fill="#F6931D" points="30.1355 159.602 30.1355 147.062 31.4745 147.062 31.4745 158.404 37.8845 158.404 37.8845 159.602"></polygon>
            <mask id="mask-4" fill="white">
                <use xlink:href="#path-3"></use>
            </mask>
            <g id="Clip-11"></g>
            <polygon id="Fill-10" fill="#F6931D" mask="url(#mask-4)" points="40.232 159.602 41.571 159.602 41.571 147.062 40.232 147.062"></polygon>
            <path d="M48.4245,159.7089 C46.5405,159.7089 45.3085,159.2319 44.1275,158.0539 L45.0435,157.1359 C46.0825,158.1759 47.0515,158.5109 48.4605,158.5109 C50.2915,158.5109 51.4195,157.6469 51.4195,156.1869 C51.4195,155.5339 51.2245,154.9719 50.8205,154.6189 C50.4155,154.2659 50.0975,154.1609 49.1815,154.0199 L47.7205,153.7909 C46.7345,153.6329 45.9585,153.3159 45.4125,152.8389 C44.7795,152.2769 44.4615,151.5009 44.4615,150.4969 C44.4615,148.3669 45.9945,146.9579 48.4775,146.9579 C50.0805,146.9579 51.1365,147.3619 52.2105,148.3309 L51.3485,149.1939 C50.5735,148.4889 49.7465,148.1189 48.4245,148.1189 C46.7525,148.1189 45.7825,149.0539 45.7825,150.4439 C45.7825,151.0619 45.9585,151.5539 46.3455,151.8889 C46.7345,152.2229 47.3855,152.4689 48.0375,152.5759 L49.4105,152.7879 C50.5915,152.9629 51.1725,153.2089 51.7005,153.6669 C52.3875,154.2489 52.7575,155.1109 52.7575,156.1499 C52.7575,158.3529 51.0315,159.7089 48.4245,159.7089" id="Fill-12" fill="#F6931D" mask="url(#mask-4)"></path>
            <polygon id="Fill-13" fill="#F6931D" mask="url(#mask-4)" points="59.2439 148.2602 59.2439 159.6022 57.9049 159.6022 57.9049 148.2602 54.2769 148.2602 54.2769 147.0622 62.8709 147.0622 62.8709 148.2602"></polygon>
            <polygon id="Fill-14" fill="#F6931D" mask="url(#mask-4)" points="65.22 159.602 65.22 147.062 73.005 147.062 73.005 148.26 66.559 148.26 66.559 152.681 72.053 152.681 72.053 153.878 66.559 153.878 66.559 158.404 73.005 158.404 73.005 159.602"></polygon>
            <polygon id="Fill-15" fill="#F6931D" mask="url(#mask-4)" points="83.7898 159.602 77.1318 149.545 77.1318 159.602 75.7928 159.602 75.7928 147.062 77.0608 147.062 83.7188 157.084 83.7188 147.062 85.0568 147.062 85.0568 159.602"></polygon>
            <path d="M95.9495,156.5908 C94.3645,156.5908 93.0785,155.3048 93.0785,153.7198 C93.0785,152.1358 94.3645,150.8498 95.9495,150.8498 C97.5345,150.8498 98.8215,152.1358 98.8215,153.7198 C98.8215,155.3048 97.5345,156.5908 95.9495,156.5908" id="Fill-16" fill="#F6931D" mask="url(#mask-4)"></path>
            <polygon id="Fill-17" fill="#F6931D" mask="url(#mask-4)" points="106.841 159.602 108.18 159.602 108.18 147.062 106.841 147.062"></polygon>
            <polygon id="Fill-18" fill="#F6931D" mask="url(#mask-4)" points="121.2151 159.602 121.2151 150.074 117.7821 157.63 116.6351 157.63 113.1491 150.074 113.1491 159.602 111.8101 159.602 111.8101 147.062 113.1491 147.062 117.2351 155.957 121.2151 147.062 122.5531 147.062 122.5531 159.602"></polygon>
            <path d="M129.7829,148.9828 L127.4239,155.6048 L132.1079,155.6048 L129.7829,148.9828 Z M133.4979,159.6018 L132.4949,156.7678 L127.0169,156.7678 L126.0139,159.6018 L124.5879,159.6018 L129.2009,147.0628 L130.3279,147.0628 L134.9249,159.6018 L133.4979,159.6018 Z" id="Fill-19" fill="#F6931D" mask="url(#mask-4)"></path>
            <path d="M144.0368,158.2631 C143.1558,159.2151 141.9748,159.7091 140.6898,159.7091 C139.4578,159.7091 138.3298,159.2511 137.4858,158.4041 C136.3048,157.2251 136.3048,155.9921 136.3048,153.3331 C136.3048,150.6731 136.3048,149.4401 137.4858,148.2601 C138.3298,147.4151 139.4398,146.9571 140.6898,146.9571 C143.0848,146.9571 144.7058,148.5081 145.0768,150.7091 L143.7378,150.7091 C143.3848,149.1241 142.2578,148.1551 140.6898,148.1551 C139.8618,148.1551 139.0708,148.4891 138.5228,149.0541 C137.7318,149.8641 137.6438,150.7091 137.6438,153.3331 C137.6438,155.9571 137.7318,156.8201 138.5228,157.6301 C139.0708,158.1931 139.8618,158.5111 140.6898,158.5111 C141.6048,158.5111 142.4858,158.1411 143.0678,157.4351 C143.5788,156.8201 143.7718,156.1331 143.7718,155.1641 L143.7718,154.2141 L140.6898,154.2141 L140.6898,153.0341 L145.1108,153.0341 L145.1108,155.0231 C145.1108,156.4691 144.8108,157.4351 144.0368,158.2631" id="Fill-20" fill="#F6931D" mask="url(#mask-4)"></path>
            <polygon id="Fill-21" fill="#F6931D" mask="url(#mask-4)" points="148.234 159.602 149.572 159.602 149.572 147.062 148.234 147.062"></polygon>
            <polygon id="Fill-22" fill="#F6931D" mask="url(#mask-4)" points="161.199 159.602 154.541 149.545 154.541 159.602 153.202 159.602 153.202 147.062 154.47 147.062 161.128 157.084 161.128 147.062 162.465 147.062 162.465 159.602"></polygon>
            <polygon id="Fill-23" fill="#F6931D" mask="url(#mask-4)" points="166.1013 159.602 166.1013 147.062 173.8863 147.062 173.8863 148.26 167.4403 148.26 167.4403 152.681 172.9343 152.681 172.9343 153.878 167.4403 153.878 167.4403 158.404 173.8863 158.404 173.8863 159.602"></polygon>
            <path d="M183.9328,156.5908 C182.3478,156.5908 181.0618,155.3048 181.0618,153.7198 C181.0618,152.1358 182.3478,150.8498 183.9328,150.8498 C185.5178,150.8498 186.8048,152.1358 186.8048,153.7198 C186.8048,155.3048 185.5178,156.5908 183.9328,156.5908" id="Fill-24" fill="#F6931D" mask="url(#mask-4)"></path>
            <path d="M198.7341,159.7089 C197.5021,159.7089 196.3751,159.2509 195.5291,158.4039 C194.3491,157.2259 194.3491,155.9919 194.3491,153.3329 C194.3491,150.6729 194.3491,149.4399 195.5291,148.2599 C196.3751,147.4149 197.5021,146.9579 198.7341,146.9579 C200.9881,146.9579 202.6611,148.3309 203.0841,150.6909 L201.7111,150.6909 C201.3751,149.1579 200.3011,148.1549 198.7341,148.1549 C197.9061,148.1549 197.1141,148.4719 196.5671,149.0359 C195.7761,149.8449 195.6881,150.7089 195.6881,153.3329 C195.6881,155.9579 195.7761,156.8199 196.5671,157.6299 C197.1141,158.1929 197.9061,158.5109 198.7341,158.5109 C200.3011,158.5109 201.4111,157.5059 201.7451,155.9749 L203.0841,155.9749 C202.6801,158.3339 200.9711,159.7089 198.7341,159.7089" id="Fill-25" fill="#F6931D" mask="url(#mask-4)"></path>
            <path d="M210.7331,148.2602 L207.3881,148.2602 L207.3881,152.8562 L210.7331,152.8562 C212.1961,152.8562 213.2351,152.0992 213.2351,150.5682 C213.2351,149.0362 212.1961,148.2602 210.7331,148.2602 L210.7331,148.2602 Z M213.2531,159.6022 L210.4001,154.0372 L207.3881,154.0372 L207.3881,159.6022 L206.0491,159.6022 L206.0491,147.0622 L210.8571,147.0622 C213.0411,147.0622 214.5741,148.3842 214.5741,150.5512 C214.5741,152.3812 213.4641,153.5792 211.8431,153.9142 L214.8201,159.6022 L213.2531,159.6022 Z" id="Fill-26" fill="#F6931D" mask="url(#mask-4)"></path>
            <polygon id="Fill-27" fill="#F6931D" mask="url(#mask-4)" points="217.6081 159.602 217.6081 147.062 225.3931 147.062 225.3931 148.26 218.9471 148.26 218.9471 152.681 224.4411 152.681 224.4411 153.878 218.9471 153.878 218.9471 158.404 225.3931 158.404 225.3931 159.602"></polygon>
            <path d="M231.7742,148.9828 L229.4152,155.6048 L234.0992,155.6048 L231.7742,148.9828 Z M235.4892,159.6018 L234.4862,156.7678 L229.0092,156.7678 L228.0052,159.6018 L226.5792,159.6018 L231.1922,147.0628 L232.3192,147.0628 L236.9162,159.6018 L235.4892,159.6018 Z" id="Fill-28" fill="#F6931D" mask="url(#mask-4)"></path>
            <polygon id="Fill-29" fill="#F6931D" mask="url(#mask-4)" points="241.571 148.2602 241.571 159.6022 240.232 159.6022 240.232 148.2602 236.605 148.2602 236.605 147.0622 245.198 147.0622 245.198 148.2602"></polygon>
            <polygon id="Fill-30" fill="#F6931D" mask="url(#mask-4)" points="247.5476 159.602 247.5476 147.062 255.3326 147.062 255.3326 148.26 248.8866 148.26 248.8866 152.681 254.3806 152.681 254.3806 153.878 248.8866 153.878 248.8866 158.404 255.3326 158.404 255.3326 159.602"></polygon>
        </g>
    </g>
</svg>